<?xml version="1.0" encoding="UTF-8"?>
<!DOCTYPE svg PUBLIC "-//W3C//DTD SVG 1.1//EN" "http://www.w3.org/Graphics/SVG/1.1/DTD/svg11.dtd">
<!-- Creator: CorelDRAW X6 -->
<svg xmlns="http://www.w3.org/2000/svg" xml:space="preserve" width="2.13839in" height="0.42122in" version="1.1" style="shape-rendering:geometricPrecision; text-rendering:geometricPrecision; image-rendering:optimizeQuality; fill-rule:evenodd; clip-rule:evenodd"
viewBox="0 0 21384 4212"
 xmlns:xlink="http://www.w3.org/1999/xlink">
 <defs>
  <style type="text/css">
   <![CDATA[
    .fil1 {fill:white}
    .fil0 {fill:white;fill-rule:nonzero}
   ]]>
  </style>
 </defs>
 <g id="Layer_x0020_1">
  <metadata id="CorelCorpID_0Corel-Layer"/>
  <g id="_518620232">
   <path class="fil0" d="M8146 2733l-9 0 -689 -2367 -721 0 1083 3124 640 0 1092 -3124 -698 0 -698 2367zm2837 78c-49,165 -228,252 -403,252 -506,0 -542,-392 -560,-566l1634 0 0 -109c0,-1057 -649,-1275 -1119,-1275 -1043,0 -1142,892 -1142,1170 0,953 515,1266 1186,1266 407,0 882,-183 1048,-740l-645 0zm-945 -709c36,-305 193,-487 488,-487 201,0 448,113 484,487l-971 0zm2564 -1736l-627 0 0 3124 627 0 0 -3124zm392 3124l627 0 0 -1205c0,-257 90,-553 578,-553 58,0 125,0 179,9l0 -618c-40,-4 -81,-9 -121,-9 -381,0 -524,226 -654,461l-9 0 0 -400 -600 0 0 2315zm3840 -1157c0,-835 -578,-1218 -1218,-1218 -640,0 -1218,383 -1218,1218 0,835 578,1218 1218,1218 640,0 1218,-383 1218,-1218zm-645 0c0,296 -90,705 -573,705 -484,0 -573,-409 -573,-705 0,-296 90,-705 573,-705 484,0 573,409 573,705zm2111 -22l783 -1136 -739 0 -394 674 -403 -674 -761 0 779 1136 -810 1179 757 0 412 -696 412 696 774 0 -810 -1179zm2411 500c-49,165 -228,252 -403,252 -506,0 -542,-392 -560,-566l1634 0 0 -109c0,-1057 -649,-1275 -1119,-1275 -1043,0 -1142,892 -1142,1170 0,953 515,1266 1186,1266 407,0 882,-183 1048,-740l-645 0zm-945 -709c36,-305 193,-487 488,-487 201,0 448,113 484,487l-971 0z"/>
   <path class="fil1" d="M4338 0l-1610 2351c-79,115 -217,119 -268,44l-130 -191 445 -678 -1039 -1527 -1737 0 2879 4212 2879 -4212 -1421 0z"/>
  </g>
 </g>
</svg>
